<?xml version="1.0" encoding="UTF-8" standalone="no"?>
<svg
   xmlns:dc="http://purl.org/dc/elements/1.1/"
   xmlns:cc="http://creativecommons.org/ns#"
   xmlns:rdf="http://www.w3.org/1999/02/22-rdf-syntax-ns#"
   xmlns:svg="http://www.w3.org/2000/svg"
   xmlns="http://www.w3.org/2000/svg"
   xmlns:sodipodi="http://sodipodi.sourceforge.net/DTD/sodipodi-0.dtd"
   xmlns:inkscape="http://www.inkscape.org/namespaces/inkscape"
   viewBox="0 0 700 700"
   version="1.1"
   class="svg replaced-svg"
   id="svg83"
   sodipodi:docname="boca-juniors-logo-escudo.svg"
   width="700"
   height="700"
   inkscape:version="0.92.4 (5da689c313, 2019-01-14)"
   inkscape:export-filename="C:\Users\suitedoalex\sites\boca-juniors-logo-escudo-0.png"
   inkscape:export-xdpi="561.73712"
   inkscape:export-ydpi="561.73712">
  <metadata
     id="metadata89">
    <rdf:RDF>
      <cc:Work
         rdf:about="">
        <dc:format>image/svg+xml</dc:format>
        <dc:type
           rdf:resource="http://purl.org/dc/dcmitype/StillImage" />
        <dc:title>Group</dc:title>
      </cc:Work>
    </rdf:RDF>
  </metadata>
  <defs
     id="defs87" />
  <sodipodi:namedview
     pagecolor="#ffffff"
     bordercolor="#666666"
     borderopacity="1"
     objecttolerance="10"
     gridtolerance="10"
     guidetolerance="10"
     inkscape:pageopacity="0"
     inkscape:pageshadow="2"
     inkscape:window-width="1600"
     inkscape:window-height="837"
     id="namedview85"
     showgrid="false"
     inkscape:zoom="0.32417582"
     inkscape:cx="883.70187"
     inkscape:cy="-55.132604"
     inkscape:window-x="-8"
     inkscape:window-y="-8"
     inkscape:window-maximized="1"
     inkscape:current-layer="svg83" />
  <!-- Generator: Sketch 56.3 (81716) - https://sketch.com -->
  <title
     id="title2">Group</title>
  <desc
     id="desc4">Created with Sketch.</desc>
  <g
     id="Page-1"
     transform="matrix(5.3968974,0,0,5.3968974,139.55306,104.5273)"
     style="fill:none;fill-rule:evenodd;stroke:none;stroke-width:1"
     inkscape:export-filename="C:\Users\suitedoalex\sites\boca-juniors-logo-escudo-4.png"
     inkscape:export-xdpi="91.317574"
     inkscape:export-ydpi="91.317574">
    <g
       id="Escudo-68-Estrellas"
       transform="translate(-332,-2209)">
      <g
         id="Group"
         transform="translate(332,2209)">
        <path
           d="M 57.068568,2.6036348 75.986818,16.439932 C 76.673539,44.464052 64.638789,74.657819 38.994051,88.734905 13.342435,74.654189 1.3244411,44.466639 2.0017918,16.439557 L 20.919535,2.6036348 c 9.614682,8.9356072 26.534393,8.9356072 36.149033,0"
           id="Fill-97"
           inkscape:connector-curvature="0"
           style="fill:#103f79" />
        <path
           d="m 56.84401,0 c 0,0 -5.815601,7.3105002 -17.849971,7.3105002 C 26.959669,7.3105002 21.14411,0 21.14411,0 L 0.0534252,15.425188 c 0,0 -3.1507695,53.300841 38.9406138,75.542893 v 0 0 C 81.085422,68.726029 77.934695,15.425188 77.934695,15.425188 Z M 57.168208,4.9601885 74.144351,17.376118 C 74.367039,44.132872 63.298974,72.777636 38.994039,86.625616 14.690708,72.77822 3.6174934,44.126864 3.8441492,17.375826 L 20.819912,4.9601885 c 5.066624,4.1133585 11.620354,6.1693075 18.173958,6.1693075 11.500906,0 18.174338,-6.1693075 18.174338,-6.1693075 z"
           id="Fill-99"
           inkscape:connector-curvature="0"
           style="fill:#f3b229" />
        <polygon
           id="Fill-101"
           points="38.1359,72.642805 36.837968,71.653988 38.472718,71.621819 39.014328,70.080786 39.553153,71.619107 41.183724,71.666005 39.879081,72.642805 40.349487,74.213296 39.009474,73.276676 37.661442,74.202614 "
           style="fill:#f3b229" />
        <polygon
           id="Fill-103"
           points="46.382867,73.545357 45.082867,72.553078 46.719052,72.52554 47.259777,70.98726 47.798728,72.52554 49.435462,72.563175 48.124699,73.550698 48.603251,75.113803 47.255091,74.181815 45.915205,75.109088 "
           style="fill:#f3b229" />
        <polygon
           id="Fill-105"
           points="29.886817,73.548645 28.588252,72.55649 30.227772,72.521609 30.771239,70.985958 31.301369,72.528911 32.936837,72.571845 31.638187,73.548645 32.108509,75.115756 30.760476,74.182432 29.408265,75.105116 "
           style="fill:#f3b229" />
        <polygon
           id="Fill-107"
           points="34.399484,77.178527 33.100919,76.186372 34.740439,76.151491 35.283864,74.61584 35.814036,76.158793 37.449504,76.201727 36.150854,77.178527 36.621176,78.745638 35.273143,77.812314 33.920932,78.734998 "
           style="fill:#f3b229" />
        <polygon
           id="Fill-109"
           points="41.872821,77.178527 40.574256,76.186372 42.213776,76.151491 42.757201,74.61584 43.287373,76.158793 44.922841,76.201727 43.624191,77.178527 44.094513,78.745638 42.74648,77.812314 41.394269,78.734998 "
           style="fill:#f3b229" />
        <polygon
           id="Fill-111"
           points="38.136149,81.060338 36.838259,80.068726 38.475879,80.033177 39.020739,78.496233 39.549392,80.039895 41.185451,80.082829 39.88621,81.060338 40.356574,82.62674 39.008541,81.693458 37.657048,82.616685 "
           style="fill:#f3b229" />
        <polygon
           id="Fill-113"
           points="38.137744,64.511423 36.829809,63.515096 38.470468,63.49098 39.017523,61.947317 39.546176,63.497697 41.19038,63.526528 39.871556,64.513384 40.339893,66.078534 39.012754,65.147171 37.664088,66.074487 "
           style="fill:#f3b229" />
        <polygon
           id="Fill-115"
           points="30.341754,64.928917 29.033819,63.93259 30.674562,63.908474 31.221533,62.364812 31.750186,63.915191 33.39439,63.943981 32.075566,64.930878 32.543903,66.495987 31.216763,65.564666 29.868056,66.491981 "
           style="fill:#f3b229" />
        <polygon
           id="Fill-117"
           points="45.933806,64.928917 44.625111,63.93259 46.263871,63.908474 46.817679,62.364812 47.340254,63.915191 48.987076,63.943981 47.672303,64.930878 48.132452,66.495987 46.809449,65.564666 45.457955,66.491981 "
           style="fill:#f3b229" />
        <polygon
           id="Fill-119"
           points="22.547232,65.341313 21.243265,64.352413 22.883417,64.330967 23.422242,62.783967 23.9617,64.32692 25.593073,64.352413 24.291765,65.351368 24.76293,66.911804 23.415404,65.977103 22.076869,66.905086 "
           style="fill:#f3b229" />
        <polygon
           id="Fill-121"
           points="53.731219,65.34871 52.423748,64.351758 54.072089,64.326264 54.610914,62.783312 55.146362,64.326264 56.780436,64.363858 55.46693,65.345414 55.947423,66.912525 54.604076,65.983207 53.25541,66.903096 "
           style="fill:#f3b229" />
        <polygon
           id="Fill-123"
           points="25.811085,69.919481 24.507751,68.921944 26.150731,68.897243 26.687487,67.353456 27.226945,68.890484 28.868533,68.927326 27.559163,69.922193 28.030075,71.483963 26.687487,70.549972 25.340806,71.471821 "
           style="fill:#f3b229" />
        <polygon
           id="Fill-125"
           points="50.464745,69.918129 49.166096,68.925933 50.801605,68.890467 51.343764,67.35419 51.878537,68.897227 53.515946,68.940077 52.207251,69.918129 52.680992,71.483988 51.332959,70.549955 49.982816,71.473891 "
           style="fill:#f3b229" />
        <polygon
           id="Fill-127"
           points="42.246069,68.870957 40.948813,67.878719 42.587657,67.843212 43.129774,66.306852 43.66117,67.850597 45.297946,67.892738 43.998663,68.870957 44.469702,70.43665 43.118968,69.503409 41.76815,70.426636 "
           style="fill:#f3b229" />
        <polygon
           id="Fill-129"
           points="34.035864,68.874249 32.730462,67.881385 34.371374,67.848507 34.916403,66.305596 35.445604,67.848507 37.081072,67.884097 35.772293,68.883011 36.246835,70.439357 34.910832,69.502737 33.560013,70.433975 "
           style="fill:#f3b229" />
        <polygon
           id="Fill-131"
           points="26.877119,60.815542 25.569775,59.819299 27.210518,59.792512 27.746684,58.2549 28.292979,59.791177 29.929122,59.82393 28.621651,60.821675 29.094674,62.383362 27.746684,61.455463 26.405447,62.372723 "
           style="fill:#f3b229" />
        <polygon
           id="Fill-133"
           points="49.402345,60.820294 48.100995,59.828015 49.737095,59.787209 50.282758,58.256231 50.814745,59.795804 52.451605,59.838738 51.144894,60.820294 51.619225,62.381355 50.267774,61.450744 48.921134,62.37397 "
           style="fill:#f3b229" />
        <polygon
           id="Fill-135"
           points="19.369522,61.235811 18.064837,60.245492 19.700346,60.217412 20.241197,58.67108 20.784031,60.217412 22.416207,60.260221 21.114856,61.245157 21.583869,62.802254 20.238411,61.873562 18.885652,62.801587 "
           style="fill:#f3b229" />
        <polygon
           id="Fill-137"
           points="56.915645,61.237083 55.611677,60.23746 57.243726,60.20938 57.796817,58.677109 58.324076,60.20938 59.958911,60.250228 58.652833,61.242466 59.1267,62.796768 57.789979,61.866239 56.441947,62.793471 "
           style="fill:#f3b229" />
        <polygon
           id="Fill-139"
           points="34.385188,59.98866 33.081179,58.990372 34.721922,58.963586 35.273114,57.414541 35.798981,58.966298 37.435672,59.004517 36.126344,59.996671 36.6,61.553685 35.259523,60.61306 33.918075,61.549805 "
           style="fill:#f3b229" />
        <polygon
           id="Fill-141"
           points="41.892072,59.984638 40.593507,58.995696 42.226738,58.960857 42.779829,57.418613 43.308481,58.965572 44.941163,59.00112 43.63652,59.992023 44.11579,61.549121 42.765014,60.612459 41.418205,61.549121 "
           style="fill:#f3b229" />
        <polygon
           id="Fill-143"
           points="60.031863,56.227615 58.737308,55.227241 60.3721,55.202498 60.911558,53.659462 61.450425,55.202498 63.09598,55.242053 61.784541,56.233581 62.24946,57.79531 60.911558,56.860025 59.567535,57.791263 "
           style="fill:#f3b229" />
        <polygon
           id="Fill-145"
           points="16.223007,56.227615 14.927734,55.227241 16.562568,55.202498 17.103377,53.659462 17.641484,55.202498 19.287081,55.242053 17.976318,56.233581 18.439887,57.79531 17.103377,56.860025 15.759354,57.791263 "
           style="fill:#f3b229" />
        <polygon
           id="Fill-147"
           points="52.736841,56.228186 51.442244,55.239286 53.078387,55.204489 53.625357,53.662203 54.151309,55.209871 55.788,55.244669 54.48264,56.234904 54.96115,57.79196 53.610416,56.85534 52.265718,57.79196 "
           style="fill:#f3b229" />
        <polygon
           id="Fill-149"
           points="23.531704,56.23157 22.229593,55.23395 23.866496,55.204493 24.401817,53.658119 24.943386,55.209875 26.588308,55.243296 25.28223,56.23157 25.741071,57.796053 24.401817,56.855344 23.051759,57.788 "
           style="fill:#f3b229" />
        <polygon
           id="Fill-151"
           points="30.833242,55.814088 29.531132,54.816468 31.167992,54.787011 31.703356,53.240637 32.244966,54.792352 33.889846,54.825814 32.583768,55.814088 33.042651,57.378571 31.703356,56.437862 30.353298,57.370518 "
           style="fill:#f3b229" />
        <polygon
           id="Fill-153"
           points="45.436522,55.818812 44.142642,54.819147 45.775409,54.784975 46.316935,53.24536 46.855,54.793653 48.484474,54.830537 47.18097,55.818812 47.652094,57.37449 46.308788,56.443211 44.965441,57.373197 "
           style="fill:#f3b229" />
        <polygon
           id="Fill-155"
           points="38.133072,55.39321 36.839107,54.40431 38.47601,54.369513 39.022305,52.827227 39.548932,54.374895 41.184948,54.409734 39.880305,55.399928 40.356705,56.957025 39.007322,56.020364 37.662666,56.957025 "
           style="fill:#f3b229" />
        <polygon
           id="Fill-157"
           points="55.183061,50.682448 53.888464,49.682074 55.523298,49.657331 56.062756,48.114462 56.601581,49.657331 58.247178,49.696886 56.935698,50.688498 57.400701,52.250268 56.062756,51.314858 54.718775,52.246179 "
           style="fill:#f3b229" />
        <polygon
           id="Fill-159"
           points="62.005385,50.682448 60.710788,49.682074 62.345622,49.657331 62.88508,48.114462 63.423905,49.657331 65.069502,49.696886 63.758022,50.688498 64.222983,52.250268 62.88508,51.314858 61.541057,52.246179 "
           style="fill:#f3b229" />
        <polygon
           id="Fill-161"
           points="14.24948,50.682448 12.954207,49.682074 14.589042,49.657331 15.129892,48.114462 15.668,49.657331 17.313555,49.696886 16.002834,50.688498 16.466402,52.250268 15.129892,51.314858 13.78587,52.246179 "
           style="fill:#f3b229" />
        <polygon
           id="Fill-163"
           points="48.367199,50.683483 47.072602,49.694499 48.708745,49.65966 49.255716,48.117458 49.781667,49.665084 51.418358,49.699882 50.112998,50.6902 50.591508,52.247256 49.240774,51.310636 47.896076,52.247256 "
           style="fill:#f3b229" />
        <polygon
           id="Fill-165"
           points="21.078975,50.686854 19.776865,49.689192 21.413725,49.659651 21.949089,48.113444 22.490657,49.665075 24.135579,49.69858 22.829501,50.686854 23.288342,52.251295 21.949089,51.310628 20.59903,52.243242 "
           style="fill:#f3b229" />
        <polygon
           id="Fill-167"
           points="27.897733,50.684138 26.605288,49.690523 28.23185,49.662401 28.776288,48.115443 29.301479,49.662401 30.951804,49.705251 29.638255,50.691565 30.110054,52.249288 28.770674,51.315964 27.428129,52.249288 "
           style="fill:#f3b229" />
        <polygon
           id="Fill-169"
           points="41.546175,50.691223 40.252295,49.691474 41.885062,49.657302 42.426587,48.117813 42.964652,49.666023 44.594127,49.702948 43.290623,50.691223 43.761747,52.246901 42.418441,51.315622 41.075136,52.245608 "
           style="fill:#f3b229" />
        <polygon
           id="Fill-171"
           points="34.721863,50.683483 33.427941,49.694499 35.064886,49.65966 35.611097,48.117458 36.137724,49.665084 37.77374,49.699882 36.469097,50.6902 36.945581,52.247256 35.596198,51.310636 34.251457,52.247256 "
           style="fill:#f3b229" />
        <polygon
           id="Fill-173"
           points="13.381274,30.716243 20.185761,30.716243 22.650316,33.185259 22.650316,36.669003 18.384122,36.661826 18.384122,34.694624 17.918105,34.191975 15.650407,34.184048 15.129099,34.680188 15.129099,42.194176 15.62867,42.675212 17.893878,42.683222 18.384122,42.204523 18.384122,40.344218 22.650316,40.356109 22.650316,43.713012 20.149505,46.262681 13.340881,46.262681 10.87468,43.687519 10.87468,33.185259 "
           style="fill:#f3b229" />
        <path
           d="m 31.221714,39.063 h 1.96414 l -0.978039,-2.445109 z m 5.180838,-8.346757 v 3.517289 l -0.791734,-0.0033 3.390172,8.456115 h 0.910422 v 3.576288 H 33.971004 V 42.686393 H 34.48425 L 34.265614,42.005124 H 30.16289 l -0.246958,0.681269 H 30.4074 v 3.576288 h -5.921796 l 0.0073,-3.576288 h 0.924941 l 3.420013,-8.46567 -0.666587,-0.0016 v -3.502895 z"
           id="Fill-175"
           inkscape:connector-curvature="0"
           style="fill:#f3b229" />
        <path
           d="m 49.674391,34.755996 -0.50434,-0.493762 -2.129679,-0.0048 v 2.243206 h 2.120773 l 0.513246,-0.499394 z m 0,5.711011 -0.519704,-0.50173 -2.114315,-7.93e-4 v 2.780068 l 2.114315,0.0032 0.519704,-0.476988 z m 4.246315,-1.213333 v 4.531975 l -2.48874,2.477028 h -9.580704 v -3.531643 h 0.949211 v -8.483987 h -0.915234 l -0.0016,-3.530809 h 9.57986 l 2.457253,2.557555 v 3.941623 l -1.028139,1.02036 z"
           id="Fill-177"
           inkscape:connector-curvature="0"
           style="fill:#f3b229" />
        <polygon
           id="Fill-179"
           points="66.442593,43.808802 63.944272,46.262673 58.279184,46.262673 55.819441,43.785645 55.819441,40.036287 60.072171,40.047427 60.069892,42.295473 60.575879,42.772545 61.669314,42.777343 62.190665,42.29781 62.190665,34.286889 60.869519,34.286889 60.869519,30.716234 67.382856,30.716234 67.382856,34.304497 66.442593,34.308502 "
           style="fill:#f3b229" />
        <polygon
           id="Fill-181"
           points="32.049667,21.897446 30.740803,20.905166 32.384375,20.872287 32.916488,19.333424 33.456706,20.881049 35.096858,20.916515 33.78867,21.906124 34.254349,23.471274 32.911128,22.52923 31.57179,23.456462 "
           style="fill:#f3b229" />
        <polygon
           id="Fill-183"
           points="25.981115,21.480619 24.685209,20.487672 26.324728,20.459508 26.868407,18.917139 27.40242,20.459508 29.040547,20.507073 27.72303,21.48525 28.204199,23.052403 26.84591,22.115741 25.510076,23.040345 "
           style="fill:#f3b229" />
        <polygon
           id="Fill-185"
           points="13.876633,21.480627 12.571273,20.486261 14.207458,20.454176 14.752318,18.915896 15.287091,20.454176 16.93062,20.498403 15.626653,21.483965 16.083468,23.055082 14.748857,22.109741 13.404877,23.041646 "
           style="fill:#f3b229" />
        <polygon
           id="Fill-187"
           points="7.820672,21.480627 6.5153116,20.486261 8.1514966,20.454176 8.696357,18.915896 9.2311297,20.454176 10.874659,20.498403 9.5706914,21.483965 10.027506,23.055082 8.692896,22.109741 7.3489155,23.041646 "
           style="fill:#f3b229" />
        <polygon
           id="Fill-189"
           points="19.93736,21.488617 18.629931,20.494335 20.271477,20.459495 20.80836,18.921216 21.355879,20.459495 22.983918,20.503097 21.679866,21.491955 22.14487,23.048385 20.803506,22.115729 19.456191,23.047717 "
           style="fill:#f3b229" />
        <polygon
           id="Fill-191"
           points="38.105624,21.897446 36.79676,20.905166 38.440332,20.872287 38.972445,19.333424 39.512663,20.881049 41.152816,20.916515 39.844627,21.906124 40.310306,23.471274 38.967085,22.52923 37.627747,23.456462 "
           style="fill:#f3b229" />
        <polygon
           id="Fill-193"
           points="44.161581,21.897446 42.852717,20.905166 44.496289,20.872287 45.028402,19.333424 45.56862,20.881049 47.208773,20.916515 45.900584,21.906124 46.366263,23.471274 45.023042,22.52923 43.683704,23.456462 "
           style="fill:#f3b229" />
        <polygon
           id="Fill-195"
           points="51.955866,21.887849 53.26473,20.895611 51.621201,20.862774 51.089045,19.323827 50.548912,20.871536 48.908717,20.90696 50.216863,21.896569 49.751184,23.461719 51.09449,22.519675 52.433743,23.446949 "
           style="fill:#f3b229" />
        <polygon
           id="Fill-197"
           points="58.024426,21.471043 59.320375,20.478096 57.680855,20.449974 57.137219,18.907605 56.603121,20.449974 54.964995,20.497539 56.282595,21.475716 55.801384,23.042827 57.159631,22.106207 58.495466,23.030811 "
           style="fill:#f3b229" />
        <polygon
           id="Fill-199"
           points="70.128929,21.471077 71.43429,20.476752 69.798147,20.444625 69.253244,18.906303 68.718471,20.444625 67.074942,20.488852 68.37891,21.474415 67.922137,23.045531 69.256705,22.100233 70.600686,23.032096 "
           style="fill:#f3b229" />
        <polygon
           id="Fill-201"
           points="64.068177,21.479063 65.375606,20.484822 63.73406,20.449982 63.197177,18.911661 62.649658,20.449982 61.021661,20.4935 62.325671,21.482442 61.860625,23.038788 63.202031,22.106174 64.549346,23.038204 "
           style="fill:#f3b229" />
        <polygon
           id="Fill-203"
           points="20.135538,11.298908 18.842376,10.299285 20.477168,10.273833 21.017343,8.7302129 21.555577,10.273833 23.200499,10.31272 21.89096,11.305625 22.354571,12.866728 21.017343,11.931402 19.673321,12.861972 "
           style="fill:#f3b229" />
        <polygon
           id="Fill-205"
           points="57.888133,11.289374 59.181296,10.289751 57.546546,10.264299 57.006328,8.7206789 56.468094,10.264299 54.823172,10.303186 56.132711,11.29605 55.669101,12.857153 57.006328,11.921826 58.350309,12.852438 "
           style="fill:#f3b229" />
        <polygon
           id="Fill-207"
           points="13.093126,16.067759 11.796503,15.073518 13.436697,15.045354 13.978265,13.503027 14.513038,15.045354 16.15184,15.09292 14.839009,16.071806 15.314058,17.638249 13.958597,16.701629 12.619976,17.626817 "
           style="fill:#f3b229" />
        <polygon
           id="Fill-209"
           points="31.881549,16.907704 30.579438,15.918053 32.216299,15.884549 32.751831,14.352319 33.289896,15.886593 34.925406,15.931488 33.623338,16.925061 34.095137,18.479446 32.739464,17.544162 31.403672,18.475399 "
           style="fill:#f3b229" />
        <polygon
           id="Fill-211"
           points="38.140998,16.907704 36.838846,15.918053 38.475748,15.884549 39.011281,14.352319 39.549346,15.886593 41.184813,15.931488 39.882787,16.925061 40.354586,18.479446 38.998914,17.544162 37.663122,18.475399 "
           style="fill:#f3b229" />
        <polygon
           id="Fill-213"
           points="44.400321,16.907704 43.098295,15.918053 44.735155,15.884549 45.270603,14.352319 45.808753,15.886593 47.44422,15.931488 46.14211,16.925061 46.613909,18.479446 45.258321,17.544162 43.922444,18.475399 "
           style="fill:#f3b229" />
        <polygon
           id="Fill-215"
           points="19.363718,16.502214 18.056247,15.507264 19.698595,15.472424 20.235984,13.934812 20.782195,15.472424 22.41091,15.515275 21.106942,16.504884 21.571776,18.06194 20.229864,17.128657 18.882549,18.061272 "
           style="fill:#f3b229" />
        <polygon
           id="Fill-217"
           points="25.623125,16.502214 24.315654,15.507264 25.958002,15.472424 26.495391,13.934812 27.041602,15.472424 28.670317,15.515275 27.366349,16.504884 27.831184,18.06194 26.489271,17.128657 25.141956,18.061272 "
           style="fill:#f3b229" />
        <polygon
           id="Fill-219"
           points="64.930584,16.067759 66.227207,15.073518 64.58697,15.045354 64.045444,13.503027 63.510671,15.045354 61.871827,15.09292 63.1847,16.071806 62.709652,17.638249 64.065071,16.701629 65.403691,17.626817 "
           style="fill:#f3b229" />
        <polygon
           id="Fill-221"
           points="52.401614,16.490197 53.70364,15.500546 52.06678,15.467042 51.531332,13.934812 50.993182,15.469086 49.357715,15.513981 50.659741,16.507596 50.187942,18.06194 51.543614,17.126613 52.879406,18.057892 "
           style="fill:#f3b229" />
        <polygon
           id="Fill-223"
           points="58.659996,16.502214 59.967466,15.507264 58.325204,15.472424 57.787814,13.934812 57.241518,15.472424 55.612804,15.515275 56.916772,16.504884 56.451937,18.06194 57.793892,17.128657 59.141165,18.061272 "
           style="fill:#f3b229" />
        <polygon
           id="Fill-231"
           points="28.467589,26.883265 27.166998,25.893656 28.803689,25.860193 29.338462,24.327212 29.879355,25.862154 31.513472,25.907049 30.211572,26.900706 30.68316,28.455007 29.327657,27.520474 27.990472,28.450376 "
           style="fill:#f3b229" />
        <polygon
           id="Fill-233"
           points="22.020441,26.894614 20.715123,25.900373 22.355318,25.865534 22.896168,24.327212 23.439678,25.865534 25.069785,25.908426 23.765058,26.898619 24.229935,28.455007 22.886587,27.521767 21.54611,28.454423 "
           style="fill:#f3b229" />
        <polygon
           id="Fill-235"
           points="15.572707,26.894614 14.267347,25.900373 15.907541,25.865534 16.448434,24.327212 16.991902,25.865534 18.622009,25.908426 17.317324,26.898619 17.782158,28.455007 16.438853,27.521767 15.098334,28.454423 "
           style="fill:#f3b229" />
        <polygon
           id="Fill-237"
           points="9.1297382,26.893321 7.816907,25.89837 9.4584525,25.87221 10.006141,24.327212 10.542138,25.87221 12.176972,25.915144 10.872962,26.898619 11.332394,28.455007 9.995209,27.527066 8.6504687,28.448999 "
           style="fill:#f3b229" />
        <polygon
           id="Fill-239"
           points="34.917737,26.894614 33.611026,25.900373 35.251854,25.865534 35.791396,24.327212 36.335539,25.865534 37.964928,25.907758 36.660919,26.898619 37.124571,28.455007 35.781899,27.521767 34.441971,28.454423 "
           style="fill:#f3b229" />
        <polygon
           id="Fill-241"
           points="41.365505,26.894614 40.058751,25.900373 41.699664,25.865534 42.239122,24.327212 42.783307,25.865534 44.412696,25.907758 43.108729,26.898619 43.572297,28.455007 42.229667,27.521767 40.889696,28.454423 "
           style="fill:#f3b229" />
        <polygon
           id="Fill-243"
           points="56.003817,26.873698 57.304492,25.884088 55.667716,25.850626 55.132944,24.317645 54.592093,25.852629 52.958018,25.897482 54.25996,26.891138 53.78833,28.445482 55.143749,27.510906 56.481018,28.440809 "
           style="fill:#f3b229" />
        <polygon
           id="Fill-245"
           points="62.450964,26.885047 63.756325,25.890806 62.116088,25.855966 61.575237,24.317645 61.03177,25.855966 59.401705,25.898859 60.706348,26.889094 60.241513,28.445482 61.584818,27.5122 62.925338,28.444856 "
           style="fill:#f3b229" />
        <polygon
           id="Fill-247"
           points="68.893933,26.883753 70.206807,25.888803 68.565261,25.862642 68.017531,24.317645 67.481534,25.862642 65.8467,25.905576 67.150709,26.889094 66.691277,28.445482 68.028505,27.517499 69.373203,28.439432 "
           style="fill:#f3b229" />
        <polygon
           id="Fill-249"
           points="49.553724,26.885047 50.860435,25.890806 49.219522,25.855966 48.680065,24.317645 48.135879,25.855966 46.506532,25.898191 47.8105,26.889094 47.346889,28.445482 48.689519,27.5122 50.02949,28.444856 "
           style="fill:#f3b229" />
      </g>
    </g>
  </g>
</svg>
